<svg xmlns="http://www.w3.org/2000/svg" viewBox="0 0 1280 800" width="1280" height="800" font-family="Arial, sans-serif">
  <defs>
    <filter id="shadow">
      <feDropShadow dx="0" dy="1" stdDeviation="3" flood-color="#00000018"/>
    </filter>
    <linearGradient id="plantbg" x1="0%" y1="0%" x2="100%" y2="100%">
      <stop offset="0%" style="stop-color:#0f2a1e"/>
      <stop offset="100%" style="stop-color:#0a1f14"/>
    </linearGradient>
  </defs>

  <!-- Page background -->
  <rect width="1280" height="800" fill="#f1f5f9"/>

  <!-- TOP NAVBAR -->
  <rect width="1280" height="64" fill="white" filter="url(#shadow)"/>
  <rect y="64" width="1280" height="1" fill="#e2e8f0"/>
  <rect x="24" y="16" width="34" height="34" rx="8" fill="#0d9488"/>
  <text x="41" y="38" font-size="17" fill="white" text-anchor="middle">&#x26A1;</text>
  <text x="66" y="38" font-size="18" font-weight="bold" fill="#0f172a">Rehabit</text>
  <rect x="148" y="20" width="98" height="28" rx="14" fill="none" stroke="#0d9488" stroke-width="1.5"/>
  <text x="197" y="38" font-size="13" fill="#0d9488" text-anchor="middle" font-weight="600">Dashboard</text>
  <text x="264" y="38" font-size="13" fill="#475569">Habits</text>
  <text x="330" y="38" font-size="13" fill="#475569">Gamification</text>
  <text x="432" y="38" font-size="13" fill="#475569">Community</text>
  <text x="516" y="38" font-size="13" fill="#475569">Mentors</text>
  <text x="580" y="38" font-size="13" fill="#475569">Profile</text>
  <text x="638" y="38" font-size="13" fill="#475569">Subscriptions</text>
  <text x="744" y="38" font-size="13" fill="#475569">Leaderboard</text>
  <rect x="860" y="18" width="80" height="30" rx="15" fill="#0f172a"/>
  <text x="900" y="37" font-size="13" fill="white" text-anchor="middle" font-weight="600">Logout</text>

  <!-- MAIN CONTENT -->
  <text x="68" y="122" font-size="30" font-weight="bold" fill="#0f172a">Welcome back, Javeed!</text>
  <text x="68" y="148" font-size="14" fill="#64748b">Let's keep building those habits</text>
  <rect x="700" y="108" width="120" height="36" rx="8" fill="#0d9488"/>
  <text x="760" y="130" font-size="13" fill="white" text-anchor="middle" font-weight="600">+ Add Habit</text>
  <rect x="832" y="108" width="140" height="36" rx="8" fill="none" stroke="#cbd5e1" stroke-width="1.5"/>
  <text x="902" y="130" font-size="13" fill="#475569" text-anchor="middle">&#x1F5FA; Progress Map</text>

  <!-- STAT CARDS -->
  <rect x="68" y="168" width="225" height="128" rx="12" fill="white" filter="url(#shadow)"/>
  <text x="150" y="210" font-size="22" text-anchor="middle" fill="#0d9488">&#x25CE;</text>
  <text x="150" y="232" font-size="12" fill="#64748b" text-anchor="middle">Total Habits</text>
  <text x="150" y="268" font-size="40" font-weight="bold" fill="#0f172a" text-anchor="middle">3</text>
  <text x="150" y="288" font-size="11" fill="#64748b" text-anchor="middle">Active tracking</text>

  <rect x="305" y="168" width="225" height="128" rx="12" fill="white" filter="url(#shadow)"/>
  <text x="418" y="210" font-size="22" text-anchor="middle">&#x1F525;</text>
  <text x="418" y="232" font-size="12" fill="#64748b" text-anchor="middle">Current Streak</text>
  <text x="418" y="265" font-size="32" font-weight="bold" fill="#0f172a" text-anchor="middle">1 days</text>
  <text x="418" y="288" font-size="11" fill="#64748b" text-anchor="middle">Keep it going!</text>

  <rect x="542" y="168" width="225" height="128" rx="12" fill="white" filter="url(#shadow)"/>
  <text x="655" y="210" font-size="22" text-anchor="middle" fill="#f59e0b">&#x2606;</text>
  <text x="655" y="232" font-size="12" fill="#64748b" text-anchor="middle">Total XP</text>
  <text x="655" y="268" font-size="40" font-weight="bold" fill="#0f172a" text-anchor="middle">5</text>
  <text x="655" y="288" font-size="11" fill="#64748b" text-anchor="middle">Level 1</text>

  <rect x="779" y="168" width="225" height="128" rx="12" fill="white" filter="url(#shadow)"/>
  <text x="892" y="210" font-size="22" text-anchor="middle" fill="#6366f1">&#x2197;</text>
  <text x="892" y="232" font-size="12" fill="#64748b" text-anchor="middle">Completions</text>
  <text x="892" y="268" font-size="40" font-weight="bold" fill="#0f172a" text-anchor="middle">1</text>
  <text x="892" y="288" font-size="11" fill="#64748b" text-anchor="middle">All time</text>

  <!-- HABIT GROWTH CARD -->
  <rect x="68" y="316" width="282" height="448" rx="14" fill="url(#plantbg)"/>
  <text x="92" y="358" font-size="20" font-weight="bold" fill="white">Habit Growth</text>
  <text x="92" y="378" font-size="12" fill="#4ade80">Your plant grows as your</text>
  <text x="92" y="394" font-size="12" fill="#4ade80">streak increases</text>
  <rect x="206" y="374" width="54" height="24" rx="12" fill="none" stroke="#4ade80" stroke-width="1.5"/>
  <text x="233" y="390" font-size="11" fill="#4ade80" text-anchor="middle">1 day</text>
  <rect x="84" y="410" width="250" height="256" rx="10" fill="#071510"/>
  <ellipse cx="209" cy="618" rx="55" ry="10" fill="#1a3a20"/>
  <path d="M178 638 Q175 612 183 608 L235 608 Q243 612 240 638 Z" fill="#c2692a"/>
  <path d="M174 610 Q176 600 209 600 Q242 600 244 610 Z" fill="#d97706"/>
  <rect x="174" y="608" width="70" height="4" rx="2" fill="#f59e0b" opacity="0.6"/>
  <rect x="206" y="530" width="6" height="80" rx="3" fill="#16a34a"/>
  <ellipse cx="200" cy="532" rx="18" ry="9" fill="#22c55e" transform="rotate(-30 200 532)"/>
  <ellipse cx="218" cy="536" rx="18" ry="9" fill="#16a34a" transform="rotate(30 218 536)"/>
  <ellipse cx="209" cy="520" rx="12" ry="16" fill="#4ade80"/>
  <text x="92" y="696" font-size="12" fill="white">Your seedling is sprouting!</text>
  <text x="322" y="696" font-size="12" fill="#4ade80" text-anchor="end">3%</text>
  <rect x="84" y="704" width="250" height="8" rx="4" fill="#1e3a2a"/>
  <rect x="84" y="704" width="9" height="8" rx="4" fill="#4ade80"/>
  <text x="86" y="726" font-size="11" fill="#94a3b8">Day 0</text>
  <text x="209" y="726" font-size="11" fill="#4ade80" text-anchor="middle">Goal: 30 days</text>
  <text x="334" y="726" font-size="11" fill="#94a3b8" text-anchor="end">Day 30</text>

  <!-- TODAY'S HABITS CARD -->
  <rect x="366" y="316" width="646" height="448" rx="14" fill="white" filter="url(#shadow)"/>
  <text x="394" y="358" font-size="17" font-weight="bold" fill="#0f172a">Today's Habits</text>
  <text x="394" y="378" font-size="13" fill="#64748b">Keep your momentum going</text>
  <rect x="384" y="390" width="620" height="1" fill="#f1f5f9"/>
  <rect x="384" y="400" width="612" height="86" rx="10" fill="white" stroke="#e2e8f0" stroke-width="1"/>
  <text x="410" y="440" font-size="15" font-weight="600" fill="#0f172a">Revision</text>
  <text x="958" y="440" font-size="12" fill="#94a3b8" text-anchor="end">Personal Growth</text>
  <text x="410" y="468" font-size="12" fill="#f97316">&#x1F525; 0 day streak</text>
  <text x="530" y="468" font-size="12" fill="#0d9488">&#x2299; 0 completions</text>
  <rect x="384" y="496" width="612" height="86" rx="10" fill="white" stroke="#e2e8f0" stroke-width="1"/>
  <text x="410" y="536" font-size="15" font-weight="600" fill="#0f172a">Leetcode</text>
  <text x="958" y="536" font-size="12" fill="#94a3b8" text-anchor="end">Lifestyle &amp; Daily Routine</text>
  <text x="410" y="564" font-size="12" fill="#f97316">&#x1F525; 0 day streak</text>
  <text x="530" y="564" font-size="12" fill="#0d9488">&#x2299; 0 completions</text>
  <rect x="384" y="592" width="612" height="86" rx="10" fill="white" stroke="#e2e8f0" stroke-width="1"/>
  <text x="410" y="632" font-size="15" font-weight="600" fill="#0f172a">Productivity</text>
  <text x="958" y="632" font-size="12" fill="#94a3b8" text-anchor="end">Productivity &amp; Work</text>
  <text x="410" y="660" font-size="12" fill="#f97316">&#x1F525; 1 day streak</text>
  <text x="530" y="660" font-size="12" fill="#0d9488">&#x2299; 2 completions</text>

  <!-- AI CHATBOT BUTTON -->
  <circle cx="1232" cy="760" r="32" fill="#0d9488" filter="url(#shadow)"/>
  <text x="1232" y="768" font-size="20" fill="white" text-anchor="middle">&#x1F916;</text>
  <circle cx="1248" cy="732" r="8" fill="#f59e0b"/>

  <rect width="1280" height="800" fill="none" stroke="#e2e8f0" stroke-width="1"/>
</svg>
