<svg xmlns="http://www.w3.org/2000/svg" width="1280" height="720" viewBox="0 0 1280 720">
  <defs>
    <linearGradient id="bg" x1="0%" y1="0%" x2="100%" y2="100%">
      <stop offset="0%" style="stop-color:#f0fdf4"/>
      <stop offset="100%" style="stop-color:#ecfdf5"/>
    </linearGradient>
    <linearGradient id="sidebar" x1="0%" y1="0%" x2="0%" y2="100%">
      <stop offset="0%" style="stop-color:#0f172a"/>
      <stop offset="100%" style="stop-color:#1e293b"/>
    </linearGradient>
    <linearGradient id="card1" x1="0%" y1="0%" x2="100%" y2="100%">
      <stop offset="0%" style="stop-color:#10b981"/>
      <stop offset="100%" style="stop-color:#059669"/>
    </linearGradient>
    <linearGradient id="card2" x1="0%" y1="0%" x2="100%" y2="100%">
      <stop offset="0%" style="stop-color:#f59e0b"/>
      <stop offset="100%" style="stop-color:#d97706"/>
    </linearGradient>
    <linearGradient id="card3" x1="0%" y1="0%" x2="100%" y2="100%">
      <stop offset="0%" style="stop-color:#8b5cf6"/>
      <stop offset="100%" style="stop-color:#7c3aed"/>
    </linearGradient>
    <linearGradient id="card4" x1="0%" y1="0%" x2="100%" y2="100%">
      <stop offset="0%" style="stop-color:#ef4444"/>
      <stop offset="100%" style="stop-color:#dc2626"/>
    </linearGradient>
    <linearGradient id="plant" x1="50%" y1="100%" x2="50%" y2="0%">
      <stop offset="0%" style="stop-color:#065f46"/>
      <stop offset="100%" style="stop-color:#34d399"/>
    </linearGradient>
    <linearGradient id="heatmap" x1="0%" y1="0%" x2="100%" y2="0%">
      <stop offset="0%" style="stop-color:#d1fae5"/>
      <stop offset="100%" style="stop-color:#059669"/>
    </linearGradient>
    <filter id="shadow">
      <feDropShadow dx="0" dy="2" stdDeviation="4" flood-color="#0000001a"/>
    </filter>
  </defs>

  <!-- Background -->
  <rect width="1280" height="720" fill="url(#bg)"/>

  <!-- Sidebar -->
  <rect x="0" y="0" width="220" height="720" fill="url(#sidebar)" filter="url(#shadow)"/>

  <!-- Logo -->
  <text x="30" y="42" font-family="Arial, sans-serif" font-size="22" font-weight="bold" fill="#10b981">🌱 reHabit</text>
  <text x="30" y="58" font-family="Arial, sans-serif" font-size="11" fill="#64748b">AI Habit Platform</text>

  <!-- Sidebar Nav Items -->
  <rect x="12" y="75" width="196" height="36" rx="8" fill="#10b981" opacity="0.2"/>
  <text x="42" y="98" font-family="Arial, sans-serif" font-size="13" fill="#10b981" font-weight="600">📊 Dashboard</text>

  <text x="42" y="140" font-family="Arial, sans-serif" font-size="13" fill="#64748b">🎯 My Habits</text>
  <text x="42" y="178" font-family="Arial, sans-serif" font-size="13" fill="#64748b">🏆 Leaderboard</text>
  <text x="42" y="216" font-family="Arial, sans-serif" font-size="13" fill="#64748b">👥 Community</text>
  <text x="42" y="254" font-family="Arial, sans-serif" font-size="13" fill="#64748b">🤖 AI Mentor</text>
  <text x="42" y="292" font-family="Arial, sans-serif" font-size="13" fill="#64748b">🛒 Shop</text>
  <text x="42" y="330" font-family="Arial, sans-serif" font-size="13" fill="#64748b">📈 Analytics</text>
  <text x="42" y="368" font-family="Arial, sans-serif" font-size="13" fill="#64748b">🌍 World Map</text>
  <text x="42" y="406" font-family="Arial, sans-serif" font-size="13" fill="#64748b">🎭 Challenges</text>

  <!-- User profile at bottom -->
  <circle cx="36" cy="680" r="18" fill="#10b981"/>
  <text x="36" y="685" font-family="Arial, sans-serif" font-size="12" fill="white" text-anchor="middle" font-weight="bold">A</text>
  <text x="62" y="677" font-family="Arial, sans-serif" font-size="12" fill="#e2e8f0" font-weight="600">Alex Johnson</text>
  <text x="62" y="691" font-family="Arial, sans-serif" font-size="10" fill="#64748b">Level 7 · 3,420 XP</text>

  <!-- Main Content Area -->
  <!-- Header -->
  <text x="248" y="48" font-family="Arial, sans-serif" font-size="26" font-weight="bold" fill="#0f172a">Welcome back, Alex! 👋</text>
  <text x="248" y="70" font-family="Arial, sans-serif" font-size="14" fill="#64748b">Let's keep building those habits</text>

  <!-- Map Progress Button -->
  <rect x="1100" y="24" width="148" height="38" rx="8" fill="#065f46"/>
  <text x="1174" y="48" font-family="Arial, sans-serif" font-size="13" fill="white" text-anchor="middle" font-weight="600">🗺 Progress Map</text>

  <!-- Stat Cards Row -->
  <!-- Card 1: XP -->
  <rect x="248" y="90" width="220" height="100" rx="12" fill="white" filter="url(#shadow)"/>
  <rect x="248" y="90" width="220" height="6" rx="6" fill="url(#card1)"/>
  <text x="264" y="132" font-family="Arial, sans-serif" font-size="12" fill="#64748b">Total XP</text>
  <text x="264" y="160" font-family="Arial, sans-serif" font-size="30" font-weight="bold" fill="#0f172a">3,420</text>
  <text x="264" y="178" font-family="Arial, sans-serif" font-size="11" fill="#10b981">+180 this week</text>

  <!-- Card 2: Streak -->
  <rect x="480" y="90" width="220" height="100" rx="12" fill="white" filter="url(#shadow)"/>
  <rect x="480" y="90" width="220" height="6" rx="6" fill="url(#card2)"/>
  <text x="496" y="132" font-family="Arial, sans-serif" font-size="12" fill="#64748b">🔥 Best Streak</text>
  <text x="496" y="160" font-family="Arial, sans-serif" font-size="30" font-weight="bold" fill="#0f172a">28 days</text>
  <text x="496" y="178" font-family="Arial, sans-serif" font-size="11" fill="#f59e0b">Personal best!</text>

  <!-- Card 3: Completions -->
  <rect x="712" y="90" width="220" height="100" rx="12" fill="white" filter="url(#shadow)"/>
  <rect x="712" y="90" width="220" height="6" rx="6" fill="url(#card3)"/>
  <text x="728" y="132" font-family="Arial, sans-serif" font-size="12" fill="#64748b">Total Completions</text>
  <text x="728" y="160" font-family="Arial, sans-serif" font-size="30" font-weight="bold" fill="#0f172a">342</text>
  <text x="728" y="178" font-family="Arial, sans-serif" font-size="11" fill="#8b5cf6">8 today</text>

  <!-- Card 4: Level -->
  <rect x="944" y="90" width="220" height="100" rx="12" fill="white" filter="url(#shadow)"/>
  <rect x="944" y="90" width="220" height="6" rx="6" fill="url(#card4)"/>
  <text x="960" y="132" font-family="Arial, sans-serif" font-size="12" fill="#64748b">Current Level</text>
  <text x="960" y="160" font-family="Arial, sans-serif" font-size="30" font-weight="bold" fill="#0f172a">Level 7</text>
  <text x="960" y="178" font-family="Arial, sans-serif" font-size="11" fill="#ef4444">2,580 XP to next</text>

  <!-- XP Progress Bar -->
  <rect x="248" y="208" width="916" height="14" rx="7" fill="#e2e8f0"/>
  <rect x="248" y="208" width="570" height="14" rx="7" fill="#10b981"/>
  <text x="248" y="240" font-family="Arial, sans-serif" font-size="11" fill="#64748b">XP Progress to Level 8: 3,420 / 6,000</text>

  <!-- Plant Growth Card -->
  <rect x="248" y="255" width="260" height="290" rx="12" fill="white" filter="url(#shadow)"/>
  <text x="268" y="285" font-family="Arial, sans-serif" font-size="14" font-weight="bold" fill="#0f172a">🌿 Habit Plant</text>
  <text x="268" y="302" font-family="Arial, sans-serif" font-size="11" fill="#64748b">Grows with your streak</text>
  <!-- Plant illustration -->
  <ellipse cx="378" cy="498" rx="30" ry="8" fill="#a7f3d0" opacity="0.5"/>
  <rect x="374" y="420" width="8" height="80" rx="4" fill="#065f46"/>
  <ellipse cx="378" cy="415" rx="40" ry="28" fill="#34d399"/>
  <ellipse cx="348" cy="445" rx="25" ry="18" fill="#10b981"/>
  <ellipse cx="408" cy="445" rx="25" ry="18" fill="#10b981"/>
  <ellipse cx="378" cy="390" rx="30" ry="22" fill="#34d399"/>
  <text x="378" y="525" font-family="Arial, sans-serif" font-size="11" fill="#10b981" text-anchor="middle" font-weight="600">28-day streak! 🔥</text>
  <text x="378" y="541" font-family="Arial, sans-serif" font-size="10" fill="#64748b" text-anchor="middle">Fully Bloomed</text>

  <!-- Today's Habits Card -->
  <rect x="525" y="255" width="380" height="290" rx="12" fill="white" filter="url(#shadow)"/>
  <text x="545" y="285" font-family="Arial, sans-serif" font-size="14" font-weight="bold" fill="#0f172a">Today's Habits</text>
  <text x="545" y="302" font-family="Arial, sans-serif" font-size="11" fill="#64748b">3 of 5 completed</text>
  <!-- Progress bar -->
  <rect x="545" y="310" width="340" height="8" rx="4" fill="#e2e8f0"/>
  <rect x="545" y="310" width="204" height="8" rx="4" fill="#10b981"/>

  <!-- Habit items -->
  <rect x="545" y="328" width="340" height="44" rx="8" fill="#f0fdf4" stroke="#bbf7d0" stroke-width="1"/>
  <circle cx="568" cy="350" r="10" fill="#10b981"/>
  <text x="568" y="354" font-family="Arial, sans-serif" font-size="10" fill="white" text-anchor="middle">✓</text>
  <text x="588" y="347" font-family="Arial, sans-serif" font-size="13" fill="#0f172a" font-weight="600">Morning Meditation</text>
  <text x="588" y="363" font-family="Arial, sans-serif" font-size="11" fill="#64748b">🔥 12 day streak · 46 completions</text>

  <rect x="545" y="380" width="340" height="44" rx="8" fill="#f0fdf4" stroke="#bbf7d0" stroke-width="1"/>
  <circle cx="568" cy="402" r="10" fill="#10b981"/>
  <text x="568" y="406" font-family="Arial, sans-serif" font-size="10" fill="white" text-anchor="middle">✓</text>
  <text x="588" y="399" font-family="Arial, sans-serif" font-size="13" fill="#0f172a" font-weight="600">Exercise 30min</text>
  <text x="588" y="415" font-family="Arial, sans-serif" font-size="11" fill="#64748b">🔥 28 day streak · 98 completions</text>

  <rect x="545" y="432" width="340" height="44" rx="8" fill="#f0fdf4" stroke="#bbf7d0" stroke-width="1"/>
  <circle cx="568" cy="454" r="10" fill="#10b981"/>
  <text x="568" y="458" font-family="Arial, sans-serif" font-size="10" fill="white" text-anchor="middle">✓</text>
  <text x="588" y="451" font-family="Arial, sans-serif" font-size="13" fill="#0f172a" font-weight="600">Read 20 Pages</text>
  <text x="588" y="467" font-family="Arial, sans-serif" font-size="11" fill="#64748b">🔥 5 day streak · 23 completions</text>

  <rect x="545" y="484" width="340" height="44" rx="8" fill="#fafafa" stroke="#e2e8f0" stroke-width="1"/>
  <circle cx="568" cy="506" r="10" fill="white" stroke="#cbd5e1" stroke-width="1.5"/>
  <text x="588" y="503" font-family="Arial, sans-serif" font-size="13" fill="#475569">Drink 2L Water</text>
  <text x="588" y="519" font-family="Arial, sans-serif" font-size="11" fill="#94a3b8">🔥 3 day streak · 14 completions</text>

  <rect x="545" y="535" width="340" height="44" rx="8" fill="#fafafa" stroke="#e2e8f0" stroke-width="1"/>
  <circle cx="568" cy="557" r="10" fill="white" stroke="#cbd5e1" stroke-width="1.5"/>
  <text x="588" y="554" font-family="Arial, sans-serif" font-size="13" fill="#475569">Journaling</text>
  <text x="588" y="570" font-family="Arial, sans-serif" font-size="11" fill="#94a3b8">🔥 0 day streak · 7 completions</text>

  <!-- Leaderboard / AI Insights Column -->
  <rect x="922" y="255" width="242" height="290" rx="12" fill="white" filter="url(#shadow)"/>
  <text x="942" y="285" font-family="Arial, sans-serif" font-size="14" font-weight="bold" fill="#0f172a">🏆 Leaderboard</text>
  <text x="942" y="302" font-family="Arial, sans-serif" font-size="11" fill="#64748b">Top performers</text>

  <!-- Gold -->
  <rect x="942" y="312" width="202" height="36" rx="6" fill="#fef3c7"/>
  <text x="954" y="334" font-family="Arial, sans-serif" font-size="13" fill="#92400e" font-weight="bold">🥇 Sarah K.</text>
  <text x="1100" y="334" font-family="Arial, sans-serif" font-size="12" fill="#92400e" text-anchor="end">5,210 XP</text>

  <!-- Silver -->
  <rect x="942" y="354" width="202" height="36" rx="6" fill="#f1f5f9"/>
  <text x="954" y="376" font-family="Arial, sans-serif" font-size="13" fill="#475569" font-weight="bold">🥈 Mike R.</text>
  <text x="1100" y="376" font-family="Arial, sans-serif" font-size="12" fill="#475569" text-anchor="end">4,890 XP</text>

  <!-- Bronze -->
  <rect x="942" y="396" width="202" height="36" rx="6" fill="#fff7ed"/>
  <text x="954" y="418" font-family="Arial, sans-serif" font-size="13" fill="#9a3412" font-weight="bold">🥉 Alex J.</text>
  <text x="1100" y="418" font-family="Arial, sans-serif" font-size="12" fill="#9a3412" text-anchor="end">3,420 XP</text>

  <rect x="942" y="438" width="202" height="36" rx="6" fill="#fafafa"/>
  <text x="954" y="460" font-family="Arial, sans-serif" font-size="13" fill="#475569">4. Jamie L.</text>
  <text x="1100" y="460" font-family="Arial, sans-serif" font-size="12" fill="#475569" text-anchor="end">2,990 XP</text>

  <rect x="942" y="480" width="202" height="36" rx="6" fill="#fafafa"/>
  <text x="954" y="502" font-family="Arial, sans-serif" font-size="13" fill="#475569">5. Priya M.</text>
  <text x="1100" y="502" font-family="Arial, sans-serif" font-size="12" fill="#475569" text-anchor="end">2,740 XP</text>

  <!-- Activity Heatmap Section -->
  <rect x="248" y="558" width="658" height="140" rx="12" fill="white" filter="url(#shadow)"/>
  <text x="268" y="585" font-family="Arial, sans-serif" font-size="14" font-weight="bold" fill="#0f172a">📅 Activity Heatmap</text>
  <text x="268" y="602" font-family="Arial, sans-serif" font-size="11" fill="#64748b">Your habit completion history</text>

  <!-- Month labels -->
  <text x="272" y="620" font-family="Arial, sans-serif" font-size="9" fill="#94a3b8">Sep</text>
  <text x="332" y="620" font-family="Arial, sans-serif" font-size="9" fill="#94a3b8">Oct</text>
  <text x="402" y="620" font-family="Arial, sans-serif" font-size="9" fill="#94a3b8">Nov</text>
  <text x="462" y="620" font-family="Arial, sans-serif" font-size="9" fill="#94a3b8">Dec</text>
  <text x="532" y="620" font-family="Arial, sans-serif" font-size="9" fill="#94a3b8">Jan</text>
  <text x="602" y="620" font-family="Arial, sans-serif" font-size="9" fill="#94a3b8">Feb</text>
  <text x="672" y="620" font-family="Arial, sans-serif" font-size="9" fill="#94a3b8">Mar</text>
  <text x="742" y="620" font-family="Arial, sans-serif" font-size="9" fill="#94a3b8">Apr</text>
  <text x="812" y="620" font-family="Arial, sans-serif" font-size="9" fill="#94a3b8">May</text>

  <!-- Heatmap grid (simplified) -->
  <g opacity="0.9">
    <!-- Row 1 -->
    <rect x="272" y="626" width="10" height="10" rx="2" fill="#d1fae5"/>
    <rect x="284" y="626" width="10" height="10" rx="2" fill="#a7f3d0"/>
    <rect x="296" y="626" width="10" height="10" rx="2" fill="#6ee7b7"/>
    <rect x="308" y="626" width="10" height="10" rx="2" fill="#34d399"/>
    <rect x="320" y="626" width="10" height="10" rx="2" fill="#10b981"/>
    <rect x="332" y="626" width="10" height="10" rx="2" fill="#059669"/>
    <rect x="344" y="626" width="10" height="10" rx="2" fill="#10b981"/>
    <rect x="356" y="626" width="10" height="10" rx="2" fill="#34d399"/>
    <rect x="368" y="626" width="10" height="10" rx="2" fill="#10b981"/>
    <rect x="380" y="626" width="10" height="10" rx="2" fill="#059669"/>
    <rect x="392" y="626" width="10" height="10" rx="2" fill="#065f46"/>
    <rect x="404" y="626" width="10" height="10" rx="2" fill="#059669"/>
    <rect x="416" y="626" width="10" height="10" rx="2" fill="#10b981"/>
    <rect x="428" y="626" width="10" height="10" rx="2" fill="#34d399"/>
    <rect x="440" y="626" width="10" height="10" rx="2" fill="#10b981"/>
    <rect x="452" y="626" width="10" height="10" rx="2" fill="#059669"/>
    <rect x="464" y="626" width="10" height="10" rx="2" fill="#065f46"/>
    <rect x="476" y="626" width="10" height="10" rx="2" fill="#10b981"/>
    <rect x="488" y="626" width="10" height="10" rx="2" fill="#059669"/>
    <rect x="500" y="626" width="10" height="10" rx="2" fill="#34d399"/>
    <rect x="512" y="626" width="10" height="10" rx="2" fill="#6ee7b7"/>
    <rect x="524" y="626" width="10" height="10" rx="2" fill="#10b981"/>
    <rect x="536" y="626" width="10" height="10" rx="2" fill="#059669"/>
    <rect x="548" y="626" width="10" height="10" rx="2" fill="#065f46"/>
    <rect x="560" y="626" width="10" height="10" rx="2" fill="#059669"/>
    <rect x="572" y="626" width="10" height="10" rx="2" fill="#10b981"/>
    <rect x="584" y="626" width="10" height="10" rx="2" fill="#34d399"/>
    <rect x="596" y="626" width="10" height="10" rx="2" fill="#10b981"/>
    <rect x="608" y="626" width="10" height="10" rx="2" fill="#059669"/>
    <rect x="620" y="626" width="10" height="10" rx="2" fill="#065f46"/>
    <rect x="632" y="626" width="10" height="10" rx="2" fill="#10b981"/>
    <rect x="644" y="626" width="10" height="10" rx="2" fill="#059669"/>
    <rect x="656" y="626" width="10" height="10" rx="2" fill="#34d399"/>
    <rect x="668" y="626" width="10" height="10" rx="2" fill="#10b981"/>
    <rect x="680" y="626" width="10" height="10" rx="2" fill="#6ee7b7"/>
    <rect x="692" y="626" width="10" height="10" rx="2" fill="#a7f3d0"/>
    <rect x="704" y="626" width="10" height="10" rx="2" fill="#d1fae5"/>
    <rect x="716" y="626" width="10" height="10" rx="2" fill="#ecfdf5"/>
    <rect x="728" y="626" width="10" height="10" rx="2" fill="#d1fae5"/>
    <rect x="740" y="626" width="10" height="10" rx="2" fill="#10b981"/>
    <rect x="752" y="626" width="10" height="10" rx="2" fill="#059669"/>
    <rect x="764" y="626" width="10" height="10" rx="2" fill="#065f46"/>
    <rect x="776" y="626" width="10" height="10" rx="2" fill="#10b981"/>
    <rect x="788" y="626" width="10" height="10" rx="2" fill="#34d399"/>
    <rect x="800" y="626" width="10" height="10" rx="2" fill="#10b981"/>
    <rect x="812" y="626" width="10" height="10" rx="2" fill="#059669"/>
    <rect x="824" y="626" width="10" height="10" rx="2" fill="#065f46"/>
    <rect x="836" y="626" width="10" height="10" rx="2" fill="#059669"/>
    <rect x="848" y="626" width="10" height="10" rx="2" fill="#10b981"/>
    <rect x="860" y="626" width="10" height="10" rx="2" fill="#34d399"/>
    <rect x="872" y="626" width="10" height="10" rx="2" fill="#10b981"/>

    <!-- Row 2 -->
    <rect x="272" y="640" width="10" height="10" rx="2" fill="#ecfdf5"/>
    <rect x="284" y="640" width="10" height="10" rx="2" fill="#d1fae5"/>
    <rect x="296" y="640" width="10" height="10" rx="2" fill="#10b981"/>
    <rect x="308" y="640" width="10" height="10" rx="2" fill="#059669"/>
    <rect x="320" y="640" width="10" height="10" rx="2" fill="#065f46"/>
    <rect x="332" y="640" width="10" height="10" rx="2" fill="#10b981"/>
    <rect x="344" y="640" width="10" height="10" rx="2" fill="#059669"/>
    <rect x="356" y="640" width="10" height="10" rx="2" fill="#34d399"/>
    <rect x="368" y="640" width="10" height="10" rx="2" fill="#10b981"/>
    <rect x="380" y="640" width="10" height="10" rx="2" fill="#059669"/>
    <rect x="392" y="640" width="10" height="10" rx="2" fill="#d1fae5"/>
    <rect x="404" y="640" width="10" height="10" rx="2" fill="#10b981"/>
    <rect x="416" y="640" width="10" height="10" rx="2" fill="#059669"/>
    <rect x="428" y="640" width="10" height="10" rx="2" fill="#065f46"/>
    <rect x="440" y="640" width="10" height="10" rx="2" fill="#059669"/>
    <rect x="452" y="640" width="10" height="10" rx="2" fill="#10b981"/>
    <rect x="464" y="640" width="10" height="10" rx="2" fill="#34d399"/>
    <rect x="476" y="640" width="10" height="10" rx="2" fill="#059669"/>
    <rect x="488" y="640" width="10" height="10" rx="2" fill="#065f46"/>
    <rect x="500" y="640" width="10" height="10" rx="2" fill="#059669"/>
    <rect x="512" y="640" width="10" height="10" rx="2" fill="#10b981"/>
    <rect x="524" y="640" width="10" height="10" rx="2" fill="#34d399"/>
    <rect x="536" y="640" width="10" height="10" rx="2" fill="#10b981"/>
    <rect x="548" y="640" width="10" height="10" rx="2" fill="#059669"/>
    <rect x="560" y="640" width="10" height="10" rx="2" fill="#10b981"/>
    <rect x="572" y="640" width="10" height="10" rx="2" fill="#059669"/>
    <rect x="584" y="640" width="10" height="10" rx="2" fill="#065f46"/>
    <rect x="596" y="640" width="10" height="10" rx="2" fill="#10b981"/>
    <rect x="608" y="640" width="10" height="10" rx="2" fill="#34d399"/>
    <rect x="620" y="640" width="10" height="10" rx="2" fill="#10b981"/>
    <rect x="632" y="640" width="10" height="10" rx="2" fill="#059669"/>
    <rect x="644" y="640" width="10" height="10" rx="2" fill="#d1fae5"/>
    <rect x="656" y="640" width="10" height="10" rx="2" fill="#ecfdf5"/>
    <rect x="668" y="640" width="10" height="10" rx="2" fill="#d1fae5"/>
    <rect x="680" y="640" width="10" height="10" rx="2" fill="#10b981"/>
    <rect x="692" y="640" width="10" height="10" rx="2" fill="#059669"/>
    <rect x="704" y="640" width="10" height="10" rx="2" fill="#10b981"/>
    <rect x="716" y="640" width="10" height="10" rx="2" fill="#059669"/>
    <rect x="728" y="640" width="10" height="10" rx="2" fill="#065f46"/>
    <rect x="740" y="640" width="10" height="10" rx="2" fill="#10b981"/>
    <rect x="752" y="640" width="10" height="10" rx="2" fill="#34d399"/>
    <rect x="764" y="640" width="10" height="10" rx="2" fill="#10b981"/>
    <rect x="776" y="640" width="10" height="10" rx="2" fill="#059669"/>
    <rect x="788" y="640" width="10" height="10" rx="2" fill="#065f46"/>
    <rect x="800" y="640" width="10" height="10" rx="2" fill="#10b981"/>
    <rect x="812" y="640" width="10" height="10" rx="2" fill="#059669"/>
    <rect x="824" y="640" width="10" height="10" rx="2" fill="#10b981"/>
    <rect x="836" y="640" width="10" height="10" rx="2" fill="#065f46"/>
    <rect x="848" y="640" width="10" height="10" rx="2" fill="#059669"/>
    <rect x="860" y="640" width="10" height="10" rx="2" fill="#10b981"/>
    <rect x="872" y="640" width="10" height="10" rx="2" fill="#059669"/>

    <!-- Row 3 - 7 (abbreviated) -->
    <rect x="272" y="654" width="612" height="10" rx="2" fill="#10b981" opacity="0.6"/>
    <rect x="272" y="668" width="612" height="10" rx="2" fill="#059669" opacity="0.5"/>
    <rect x="272" y="682" width="612" height="10" rx="2" fill="#34d399" opacity="0.4"/>
  </g>

  <!-- AI Insights  -->
  <rect x="922" y="558" width="242" height="140" rx="12" fill="url(#card1)" opacity="0.1" filter="url(#shadow)"/>
  <rect x="922" y="558" width="242" height="140" rx="12" fill="none" stroke="#10b981" stroke-width="1.5"/>
  <text x="942" y="587" font-family="Arial, sans-serif" font-size="14" font-weight="bold" fill="#065f46">✨ AI Insights</text>
  <text x="942" y="608" font-family="Arial, sans-serif" font-size="11" fill="#374151" xml:space="preserve">You track 5 active habits.</text>
  <text x="942" y="624" font-family="Arial, sans-serif" font-size="11" fill="#374151">Top: Fitness category.</text>
  <text x="942" y="640" font-family="Arial, sans-serif" font-size="11" fill="#374151">342 total completions.</text>
  <text x="942" y="664" font-family="Arial, sans-serif" font-size="11" fill="#059669">🔥 Keep up your 28-day streak!</text>
  <text x="942" y="682" font-family="Arial, sans-serif" font-size="11" fill="#059669">You're in the top 3 this week.</text>

  <!-- Bottom text -->
  <text x="640" y="712" font-family="Arial, sans-serif" font-size="11" fill="#94a3b8" text-anchor="middle">reHabit — AI-Powered Habit Transformation Platform · 2026</text>
</svg>
